Coordinates
version=1
nRows=33
nColumns=38
inDegrees=no

Units are S.I. units (second, meters, Newtons, ...)
If the header above contains a line with 'inDegrees', this indicates whether rotational values are in degrees (yes) or radians (no).

endheader
time	pelvis_tilt	pelvis_list	pelvis_rotation	pelvis_tx	pelvis_ty	pelvis_tz	hip_flexion_r	hip_adduction_r	hip_rotation_r	knee_angle_r	ankle_angle_r	subtalar_angle_r	mtp_angle_r	hip_flexion_l	hip_adduction_l	hip_rotation_l	knee_angle_l	ankle_angle_l	subtalar_angle_l	mtp_angle_l	lumbar_extension	lumbar_bending	lumbar_rotation	arm_flex_r	arm_add_r	arm_rot_r	elbow_flex_r	pro_sup_r	wrist_flex_r	wrist_dev_r	arm_flex_l	arm_add_l	arm_rot_l	elbow_flex_l	pro_sup_l	wrist_flex_l	wrist_dev_l
1.78	0.0542252	-0.0183347	0.0760789	1.66401	1.00921	-0.242383	-0.0417479	0.0757849	-0.136542	0.188037	0.179192	0	0	0.445039	-0.107742	-0.09511	1.04232	0.0345239	0	0	-0.158792	0.0542651	-0.0124292	0.0758874	-0.186759	-0.273226	0.831008	0.245728	0	0	-0.0711158	-0.214817	-0.132219	0.886651	0.231221	0	0
1.79	0.0592294	-0.014963	0.0685294	1.67552	1.00952	-0.241718	-0.069104	0.0752604	-0.121098	0.171515	0.180493	0	0	0.446009	-0.104266	-0.108144	0.99381	0.045616	0	0	-0.167036	0.0493142	-0.00169109	0.0814131	-0.193041	-0.263272	0.852355	0.224068	0	0	-0.0818552	-0.216922	-0.1409	0.895017	0.236131	0	0
1.8	0.0602676	-0.0131404	0.0642706	1.68686	1.00918	-0.241317	-0.0910643	0.0755371	-0.112181	0.156698	0.184001	0	0	0.451625	-0.100401	-0.117752	0.942844	0.0527608	0	0	-0.170406	0.0460922	0.00583314	0.0876887	-0.198092	-0.25381	0.868311	0.241061	0	0	-0.091239	-0.218173	-0.15218	0.900316	0.216977	0	0
1.81	0.0611716	-0.00878258	0.0623189	1.69836	1.00862	-0.241262	-0.113644	0.0727406	-0.107563	0.141398	0.189546	0	0	0.454468	-0.0919271	-0.126555	0.885897	0.056857	0	0	-0.173455	0.040208	0.00755028	0.0963954	-0.202958	-0.240191	0.881543	0.2363	0	0	-0.103115	-0.217993	-0.168805	0.906174	0.236605	0	0
1.82	0.0616007	-0.0116788	0.0539221	1.70975	1.00765	-0.240538	-0.133375	0.0771123	-0.0945254	0.128834	0.192488	0	0	0.457166	-0.094984	-0.139822	0.828886	0.0657813	0	0	-0.176362	0.0418101	0.021548	0.10279	-0.208442	-0.238151	0.89633	0.236663	0	0	-0.109594	-0.218358	-0.174619	0.907722	0.23352	0	0
1.83	0.0617962	-0.0110067	0.0482628	1.72128	1.00651	-0.240245	-0.153976	0.0773918	-0.0853681	0.115247	0.196884	0	0	0.457065	-0.0913911	-0.150348	0.766026	0.0723311	0	0	-0.178958	0.0397785	0.0295195	0.109896	-0.213681	-0.232733	0.911132	0.210009	0	0	-0.117185	-0.218033	-0.187251	0.907145	0.233983	0	0
1.84	0.0560137	-0.0113119	0.0472941	1.73268	1.00452	-0.240389	-0.166765	0.0784686	-0.0849747	0.104265	0.204503	0	0	0.464713	-0.0852127	-0.153603	0.702836	0.0762406	0	0	-0.174253	0.0390822	0.0312781	0.117399	-0.218138	-0.22334	0.92283	0.209624	0	0	-0.126338	-0.218449	-0.195828	0.906768	0.238097	0	0
1.85	0.0588572	-0.00970189	0.0397894	1.74437	1.00333	-0.24026	-0.191486	0.0770162	-0.0709243	0.0889542	0.207906	0	0	0.45684	-0.0796573	-0.163982	0.632151	0.0827045	0	0	-0.179794	0.0363224	0.0412144	0.122395	-0.223967	-0.213285	0.939749	0.237537	0	0	-0.132219	-0.216471	-0.20593	0.905768	0.246023	0	0
1.86	0.0581447	-0.00873343	0.0350611	1.75611	1.00153	-0.240381	-0.210266	0.0759092	-0.063355	0.077754	0.214182	0	0	0.45308	-0.0720617	-0.167187	0.561598	0.0908605	0	0	-0.180757	0.0343261	0.0476339	0.128275	-0.228598	-0.206227	0.952434	0.246917	0	0	-0.138371	-0.215112	-0.214568	0.903892	0.240301	0	0
1.87	0.0540753	-0.00808543	0.0330817	1.76793	0.99922	-0.240743	-0.223723	0.0751962	-0.0610713	0.0699499	0.222494	0	0	0.452491	-0.0624707	-0.162923	0.490624	0.0996697	0	0	-0.177705	0.0327407	0.0500698	0.134869	-0.232955	-0.196635	0.962438	0.246563	0	0	-0.146169	-0.213935	-0.222232	0.902847	0.245787	0	0
1.88	0.0569203	-0.00461045	0.0283832	1.78005	0.997489	-0.241021	-0.245739	0.0710119	-0.0530692	0.0608204	0.22896	0	0	0.439251	-0.050382	-0.158423	0.414399	0.107759	0	0	-0.182316	0.0280945	0.0567314	0.14039	-0.236018	-0.197236	0.974982	0.210334	0	0	-0.149462	-0.212271	-0.230755	0.897329	0.240504	0	0
1.89	0.0539984	-0.00303003	0.0287232	1.79222	0.994925	-0.24163	-0.2593	0.0695162	-0.0537347	0.0560734	0.238022	0	0	0.433551	-0.0379484	-0.143132	0.341454	0.114091	0	0	-0.179714	0.0255426	0.0555641	0.146972	-0.238564	-0.188406	0.981952	0.210026	0	0	-0.156542	-0.211583	-0.237301	0.893549	0.245681	0	0
1.9	0.0564387	0.00169487	0.0264175	1.80465	0.992933	-0.242224	-0.278533	0.0639298	-0.0517869	0.0520947	0.245709	0	0	0.416851	-0.0235461	-0.125765	0.264213	0.116992	0	0	-0.183108	0.0196024	0.0573223	0.153331	-0.239889	-0.183484	0.98808	0.21751	0	0	-0.159681	-0.209826	-0.247031	0.884893	0.236308	0	0
1.91	0.0558263	0.00496235	0.0235808	1.81707	0.990595	-0.242826	-0.291943	0.0593248	-0.0514249	0.0525605	0.254665	0	0	0.403019	-0.0120345	-0.102913	0.190475	0.118867	0	0	-0.182829	0.0151132	0.0593362	0.159564	-0.240889	-0.178608	0.992465	0.225835	0	0	-0.161832	-0.207034	-0.255602	0.873949	0.247466	0	0
1.92	0.0552504	0.0089435	0.0209291	1.82973	0.988225	-0.243428	-0.304409	0.053843	-0.052948	0.0552976	0.264536	0	0	0.387432	-0.00105862	-0.072011	0.119971	0.119499	0	0	-0.182281	0.00951775	0.0599895	0.166152	-0.241113	-0.172639	0.993835	0.225699	0	0	-0.165844	-0.205072	-0.263433	0.866447	0.258494	0	0
1.93	0.0551527	0.0133053	0.0178707	1.84262	0.985857	-0.243909	-0.316371	0.0477887	-0.0550351	0.0603615	0.274753	0	0	0.37054	0.00782533	-0.0366642	0.0551901	0.116729	0	0	-0.181791	0.00316432	0.0612088	0.171688	-0.239619	-0.171019	0.994768	0.215348	0	0	-0.169601	-0.204191	-0.271646	0.857616	0.237993	0	0
1.94	0.0545716	0.0168831	0.0153741	1.85568	0.983423	-0.244405	-0.32664	0.0425409	-0.0581523	0.0679206	0.284524	0	0	0.356701	0.0139421	-0.00344365	0.00207973	0.112988	0	0	-0.180307	-0.00253946	0.0608823	0.176997	-0.237358	-0.166678	0.993778	0.228887	0	0	-0.174169	-0.203189	-0.278805	0.848801	0.238742	0	0
1.95	0.0478947	0.0169652	0.0123799	1.86829	0.980557	-0.244844	-0.324606	0.0399323	-0.0637949	0.0850094	0.297101	0	0	0.361118	0.0152911	0.0116883	0	0.119541	0	0	-0.17265	-0.00453522	0.0622763	0.1818	-0.234397	-0.166888	0.991466	0.231544	0	0	-0.175331	-0.201255	-0.286285	0.834721	0.233672	0	0
1.96	0.0479854	0.0172057	0.00881016	1.88039	0.978279	-0.245189	-0.326257	0.0394186	-0.0579549	0.107001	0.302807	0	0	0.378655	0.0166103	0.00944932	0	0.133545	0	0	-0.173999	-0.00685445	0.0675661	0.185592	-0.231576	-0.172617	0.990353	0.232103	0	0	-0.173699	-0.200855	-0.285569	0.82388	0.23042	0	0
1.97	0.0468032	0.0218505	0.00684706	1.89409	0.976015	-0.245967	-0.33392	0.032325	-0.0603964	0.11938	0.309455	0	0	0.379704	0.024208	0.0091192	0	0.141879	0	0	-0.170668	-0.0140861	0.0625948	0.190156	-0.228548	-0.161624	0.985391	0.231254	0	0	-0.181117	-0.199759	-0.294491	0.817828	0.23418	0	0
1.98	0.04299	0.0226362	-0.00419133	1.90801	0.97406	-0.246088	-0.33386	0.0219936	-0.0719253	0.140601	0.322269	0	0	0.369375	0.0243779	0.00223355	0	0.142918	0	0	-0.164318	-0.0176507	0.0696722	0.191534	-0.224195	-0.163623	0.980701	0.241559	0	0	-0.183875	-0.197996	-0.296587	0.804723	0.244712	0	0
1.99	0.0434781	0.0293984	-0.00648203	1.92214	0.97236	-0.246831	-0.341177	0.0112261	-0.0780348	0.157637	0.328419	0	0	0.371104	0.033096	0.00323352	0.00565761	0.145375	0	0	-0.162502	-0.0278087	0.0650778	0.192971	-0.219841	-0.157015	0.976359	0.207549	0	0	-0.190384	-0.197058	-0.307526	0.798999	0.243452	0	0
2	0.0446847	0.0330095	-0.00991934	1.93612	0.971033	-0.247503	-0.346627	0.00295056	-0.0818736	0.178418	0.330421	0	0	0.373951	0.0377634	0.00457378	0.038151	0.146987	0	0	-0.162172	-0.0343548	0.064189	0.191949	-0.215479	-0.154387	0.973469	0.20734	0	0	-0.194298	-0.196437	-0.312469	0.793838	0.246932	0	0
2.01	0.0438479	0.0374688	-0.0142961	1.94996	0.969847	-0.248157	-0.345661	-0.0076887	-0.0896757	0.206364	0.332911	0	0	0.382575	0.0423834	-0.00660134	0.0783444	0.147489	0	0	-0.159989	-0.0416709	0.0671796	0.187637	-0.210168	-0.158089	0.97138	0.233288	0	0	-0.194676	-0.197487	-0.309486	0.785917	0.238948	0	0
2.02	0.0452357	0.0427549	-0.0172018	1.96426	0.969041	-0.248964	-0.348355	-0.0188609	-0.0974797	0.232551	0.329915	0	0	0.384723	0.0485228	-0.0139956	0.110134	0.141164	0	0	-0.159499	-0.0500204	0.0672693	0.182966	-0.204915	-0.161789	0.968819	0.208583	0	0	-0.197789	-0.198293	-0.306849	0.783583	0.239451	0	0
2.03	0.0451804	0.048163	-0.01887	1.97882	0.968323	-0.250016	-0.348681	-0.0304027	-0.106521	0.260449	0.323804	0	0	0.385585	0.0559713	-0.0145154	0.133633	0.1249	0	0	-0.156931	-0.0583811	0.0648711	0.177477	-0.199965	-0.160143	0.964142	0.208211	0	0	-0.201297	-0.197651	-0.311488	0.780973	0.243072	0	0
2.04	0.0512273	0.0549916	-0.0284875	1.99346	0.968547	-0.250654	-0.351917	-0.0469081	-0.108588	0.292682	0.312534	0	0	0.374108	0.0625427	-0.0217186	0.1443	0.0971212	0	0	-0.160893	-0.0685006	0.0742034	0.168885	-0.194424	-0.169354	0.960752	0.241796	0	0	-0.199522	-0.200178	-0.298778	0.774151	0.232921	0	0
2.05	0.0536614	0.062899	-0.0342117	2.00839	0.968626	-0.251913	-0.349454	-0.0644309	-0.116534	0.328912	0.300061	0	0	0.361178	0.0721972	-0.018575	0.145177	0.0626104	0	0	-0.159835	-0.0791099	0.0768325	0.160539	-0.188771	-0.176096	0.955394	0.235879	0	0	-0.200692	-0.2005	-0.29393	0.768579	0.247332	0	0
2.06	0.0497563	0.0717867	-0.0339738	2.0236	0.96816	-0.253828	-0.337931	-0.0827661	-0.134152	0.371287	0.289497	0	0	0.354968	0.0841747	-0.0116661	0.148278	0.0313327	0	0	-0.150701	-0.0898624	0.0707795	0.151795	-0.183524	-0.173901	0.947952	0.234996	0	0	-0.205728	-0.198587	-0.303079	0.766941	0.251375	0	0
2.07	0.0548089	0.0772141	-0.0461503	2.03851	0.968953	-0.25442	-0.32904	-0.101905	-0.138137	0.419693	0.265031	0	0	0.339957	0.086916	-0.0288222	0.155402	0.00829733	0	0	-0.151665	-0.0980977	0.0819875	0.142671	-0.177732	-0.188221	0.94053	0.215817	0	0	-0.20564	-0.200606	-0.29058	0.766694	0.22921	0	0
2.08	0.053572	0.0844491	-0.0481299	2.05348	0.969139	-0.255876	-0.312024	-0.121545	-0.154913	0.473122	0.242928	0	0	0.338231	0.0946965	-0.0357547	0.174003	-0.00945843	0	0	-0.145847	-0.107386	0.078342	0.134295	-0.172384	-0.186896	0.931448	0.214887	0	0	-0.208481	-0.199008	-0.29905	0.766844	0.233262	0	0
2.09	0.056959	0.0850316	-0.0589255	2.06805	0.970018	-0.256417	-0.291944	-0.137075	-0.155874	0.533148	0.200737	0	0	0.336548	0.0911941	-0.0615602	0.203563	-0.0139903	0	0	-0.145239	-0.109749	0.0885371	0.124683	-0.167205	-0.198885	0.922614	0.219855	0	0	-0.207614	-0.201264	-0.282495	0.76785	0.232735	0	0
2.1	0.0564566	0.0885651	-0.0624512	2.08249	0.970555	-0.257759	-0.264656	-0.155833	-0.163984	0.598809	0.156225	0	0	0.340963	0.0940421	-0.0717663	0.236516	-0.0139949	0	0	-0.140746	-0.114215	0.0880777	0.115784	-0.162284	-0.200031	0.912225	0.25509	0	0	-0.207358	-0.201893	-0.278241	0.769205	0.237289	0	0
